<?xml version="1.0" encoding="UTF-8"?><svg xmlns="http://www.w3.org/2000/svg" viewBox="0 0 96 96"><defs><style>.a{fill:#fff}.b{fill:#43e4ff}@media(prefers-color-scheme:light){.a{fill:#303030}}</style></defs><path class="a" d="M11.8,46h0a16,16,0,0,0,1.3-7.1V23.4H10v-.9h3.1V20.2a12.2,12.2,0,0,1,3.2-8.9A10.4,10.4,0,0,1,24.1,8a17.6,17.6,0,0,1,5.5.9l.6,7.8h-.3a39,39,0,0,0-3.6-5.4c-1.4-1.7-2.6-2.5-3.6-2.5s-1.7.7-2.4,2.3a17,17,0,0,0-1,6.2v5.1h6.4a25.2,25.2,0,0,0,7.5-1V36.9a26,26,0,0,0,1.2,9H25.9a33.6,33.6,0,0,0,1.1-9V30.7c0-3.4-.6-5.8-2-7.3H19.3V38.8a17,17,0,0,0,1.3,7.1H11.8Z"/><path class="a" d="M57.6,40a9.3,9.3,0,0,1-3.4,4.9A10.3,10.3,0,0,1,48,46.7a10.7,10.7,0,0,1-8.1-3.2c-2.1-2.2-3.1-5.1-3.1-8.8a12.6,12.6,0,0,1,3.7-9.3,12.9,12.9,0,0,1,9.2-3.7,16.9,16.9,0,0,1,6.6,1.2l.6,6.2h-.4a19.4,19.4,0,0,0-3.8-4.6A5.5,5.5,0,0,0,49,22.7a5,5,0,0,0-4.4,2.5A13.1,13.1,0,0,0,43,32.1c0,3.2.7,5.7,2.3,7.4a7.8,7.8,0,0,0,5.9,2.4c2.8,0,4.8-.7,6.1-2.1Z"/><path class="a" d="M80,40a8.9,8.9,0,0,1-3.5,4.9,9.8,9.8,0,0,1-6.1,1.8,11.1,11.1,0,0,1-8.2-3.2,12.6,12.6,0,0,1-3.1-8.8,12.7,12.7,0,0,1,3.8-9.3,12.9,12.9,0,0,1,9.2-3.7,16,16,0,0,1,6.5,1.2l.7,6.2h-.5a19.1,19.1,0,0,0-3.7-4.6,5.7,5.7,0,0,0-3.7-1.9A5,5,0,0,0,67,25.2a13.1,13.1,0,0,0-1.7,6.9c0,3.2.8,5.7,2.3,7.4a7.8,7.8,0,0,0,6,2.4c2.8,0,4.8-.7,6.1-2.1Z"/><path class="b" d="M13.7,88.2a3.7,3.7,0,0,1,0-7.4,3.6,3.6,0,0,1,2.5,1.1,3.6,3.6,0,0,1,0,5.2A3.6,3.6,0,0,1,13.7,88.2Z"/><path class="b" d="M37.6,88.6a4.8,4.8,0,0,1-3.1-1A3.8,3.8,0,0,1,33,85.1a8.6,8.6,0,0,1-7,3.6,6,6,0,0,1-3.8-1.2,3.7,3.7,0,0,1-1.5-3.3c0-4.1,4-6.9,12.2-8.4V71.5a4.3,4.3,0,0,0-1.1-3.2c-.7-.7-1.8-1-3.5-1a11.7,11.7,0,0,0-6.4,1.8l-.3-.4a12.8,12.8,0,0,1,10.6-5.1c2.4,0,4.1.6,5.2,1.7a5.7,5.7,0,0,1,1.7,4.5V83c0,1.5.7,2.2,2,2.2a3.7,3.7,0,0,0,2.2-.8h.1C42.1,87.2,40.1,88.6,37.6,88.6Zm-7.9-3.3a5.1,5.1,0,0,0,3.2-1V76.6c-4.4,1.1-6.6,3-6.6,5.6a3.2,3.2,0,0,0,.9,2.3A3.9,3.9,0,0,0,29.7,85.3Z"/><path class="b" d="M44.8,87.8a33.7,33.7,0,0,0,1.2-9V73.3a9.8,9.8,0,0,0-2.4-6.9v-.3l8.6-2.7V78.8c0,4,.3,7,1.1,9H44.8Zm7.4-32a3.4,3.4,0,0,1-1.1,2.5,3.5,3.5,0,0,1-6-2.5,3.3,3.3,0,0,1,1-2.4,3.4,3.4,0,0,1,5,0A3.4,3.4,0,0,1,52.2,55.8Z"/></svg>