<svg xmlns="http://www.w3.org/2000/svg" xmlns:xlink="http://www.w3.org/1999/xlink" viewBox="0 0 1066 3198"><defs><style>.a{fill:url(#a)}.b{fill:url(#b)}.c{fill:url(#c)}.d{fill:url(#d)}.e{fill:url(#e)}.f{fill:url(#f)}.g{fill:url(#g)}.h{fill:url(#h)}.i{fill:url(#i)}.j{fill:url(#j)}.k{fill:url(#k)}.l{fill:url(#l)}.m{fill:url(#m)}.n{fill:url(#n)}.al,.bh,.o{fill:none;stroke-width:16}.o{stroke:url(#o)}.p{fill:url(#p)}.q{fill:url(#q)}.r{fill:url(#r)}.s{fill:url(#s)}.t{fill:url(#v)}.u{fill:url(#w)}.v{fill:url(#x)}.w{fill:url(#y)}.x{fill:url(#z)}.y{fill:url(#aa)}.z{fill:url(#ab)}.aa{fill:url(#ac)}.ab{fill:url(#ad)}.ac{fill:url(#ae)}.ad{fill:url(#af)}.ae{fill:url(#ag)}.af{fill:url(#ah)}.ag{fill:url(#ai)}.ah{fill:url(#aj)}.ai{fill:url(#ak)}.aj{fill:url(#al)}.ak{fill:url(#am)}.al{stroke:url(#an)}.am{fill:url(#ao)}.an{fill:url(#ap)}.ao{fill:url(#aq)}.ap{fill:url(#ar)}.aq{fill:url(#as)}.ar{fill:url(#at)}.as{fill:url(#au)}.at{fill:url(#av)}.au{fill:url(#aw)}.av{fill:url(#ax)}.aw{fill:url(#ay)}.ax{fill:url(#az)}.ay{fill:url(#ba)}.az{fill:url(#bb)}.ba{fill:url(#bc)}.bb{fill:url(#bd)}.bc{fill:url(#be)}.bd{fill:url(#bf)}.be{fill:url(#bg)}.bf{fill:url(#bh)}.bg{fill:url(#bi)}.bh{stroke:url(#bj)}</style><linearGradient id="a" x1="-34.98" y1="-209.69" x2="572.58" y2="229.9" gradientTransform="matrix(1, 0, 0, -1, 280, 1607.7)" gradientUnits="userSpaceOnUse"><stop offset="0" stop-color="#79d9fb"/><stop offset="1" stop-color="#fff"/></linearGradient><linearGradient id="b" x1="-304.93" y1="-21.94" x2="475.66" y2="542.84" gradientTransform="matrix(1, 0, 0, -1, 287, 1614)" xlink:href="#a"/><linearGradient id="c" x1="-203.35" y1="-162.33" x2="577.23" y2="402.44" gradientTransform="matrix(1, 0, 0, -1, 287, 1614)" xlink:href="#a"/><linearGradient id="d" x1="-2.75" y1="-439.58" x2="777.83" y2="125.2" gradientTransform="matrix(1, 0, 0, -1, 287, 1614)" xlink:href="#a"/><linearGradient id="e" x1="-103.48" y1="-300.37" x2="677.1" y2="264.41" gradientTransform="matrix(1, 0, 0, -1, 287, 1614)" xlink:href="#a"/><linearGradient id="f" x1="-321.03" y1="0.33" x2="459.55" y2="565.11" gradientTransform="matrix(1, 0, 0, -1, 287, 1614)" xlink:href="#a"/><linearGradient id="g" x1="-220.31" y1="-138.89" x2="560.27" y2="425.89" gradientTransform="matrix(1, 0, 0, -1, 287, 1614)" xlink:href="#a"/><linearGradient id="h" x1="-119.58" y1="-278.1" x2="661" y2="286.68" gradientTransform="matrix(1, 0, 0, -1, 287, 1614)" xlink:href="#a"/><linearGradient id="i" x1="-188.2" y1="-183.27" x2="592.38" y2="381.5" gradientTransform="matrix(1, 0, 0, -1, 287, 1614)" xlink:href="#a"/><linearGradient id="j" x1="-87.47" y1="-322.48" x2="693.11" y2="242.29" gradientTransform="matrix(1, 0, 0, -1, 287, 1614)" xlink:href="#a"/><linearGradient id="k" x1="13.25" y1="-461.7" x2="793.83" y2="103.07" gradientTransform="matrix(1, 0, 0, -1, 287, 1614)" xlink:href="#a"/><linearGradient id="l" x1="-121.76" y1="-275.09" x2="658.82" y2="289.68" gradientTransform="matrix(1, 0, 0, -1, 287, 1614)" xlink:href="#a"/><linearGradient id="m" x1="-21.04" y1="-414.3" x2="759.54" y2="150.47" gradientTransform="matrix(1, 0, 0, -1, 287, 1614)" xlink:href="#a"/><linearGradient id="n" x1="79.69" y1="-553.52" x2="860.27" y2="11.25" gradientTransform="matrix(1, 0, 0, -1, 287, 1614)" xlink:href="#a"/><linearGradient id="o" x1="-210.5" y1="-256.4" x2="702.5" y2="286.4" gradientTransform="matrix(1, 0, 0, -1, 287, 1614)" xlink:href="#a"/><linearGradient id="p" x1="-135.58" y1="796.32" x2="622.35" y2="1349.22" gradientTransform="matrix(1, 0, 0, -1, 279.3, 1606.8)" xlink:href="#a"/><linearGradient id="q" x1="-135.55" y1="796.28" x2="622.38" y2="1349.18" gradientTransform="matrix(1, 0, 0, -1, 279.3, 1606.8)" xlink:href="#a"/><linearGradient id="r" x1="-128.19" y1="786.18" x2="629.75" y2="1339.08" gradientTransform="matrix(1, 0, 0, -1, 279.3, 1606.8)" xlink:href="#a"/><linearGradient id="s" x1="-128.22" y1="786.22" x2="629.72" y2="1339.12" gradientTransform="matrix(1, 0, 0, -1, 279.3, 1606.8)" xlink:href="#a"/><linearGradient id="v" x1="-139.04" y1="801.06" x2="618.9" y2="1353.97" gradientTransform="matrix(1, 0, 0, -1, 279.3, 1606.8)" xlink:href="#a"/><linearGradient id="w" x1="-139.04" y1="801.05" x2="618.9" y2="1353.96" gradientTransform="matrix(1, 0, 0, -1, 279.3, 1606.8)" xlink:href="#a"/><linearGradient id="x" x1="-104.18" y1="753.27" x2="653.76" y2="1306.18" gradientTransform="matrix(1, 0, 0, -1, 279.3, 1606.8)" xlink:href="#a"/><linearGradient id="y" x1="-104.18" y1="753.27" x2="653.76" y2="1306.18" gradientTransform="matrix(1, 0, 0, -1, 279.3, 1606.8)" xlink:href="#a"/><linearGradient id="z" x1="-131.78" y1="787.73" x2="626.16" y2="1340.64" gradientTransform="matrix(1, 0, 0, -1, 287, 1614)" xlink:href="#a"/><linearGradient id="aa" x1="-124.09" y1="780.56" x2="633.85" y2="1333.47" gradientTransform="matrix(1, 0, 0, -1, 279.3, 1606.8)" xlink:href="#a"/><linearGradient id="ab" x1="-139.43" y1="798.22" x2="618.51" y2="1351.13" gradientTransform="matrix(1, 0, 0, -1, 287, 1614)" xlink:href="#a"/><linearGradient id="ac" x1="-140.67" y1="799.94" x2="617.27" y2="1352.83" gradientTransform="matrix(1, 0, 0, -1, 287, 1614)" xlink:href="#a"/><linearGradient id="ad" x1="-178.67" y1="852.03" x2="579.27" y2="1404.93" gradientTransform="matrix(1, 0, 0, -1, 287, 1614)" xlink:href="#a"/><linearGradient id="ae" x1="-170.16" y1="840.35" x2="587.78" y2="1393.25" gradientTransform="matrix(1, 0, 0, -1, 287, 1614)" xlink:href="#a"/><linearGradient id="af" x1="-131.09" y1="786.79" x2="626.85" y2="1339.69" gradientTransform="matrix(1, 0, 0, -1, 287, 1614)" xlink:href="#a"/><linearGradient id="ag" x1="-89.59" y1="729.91" x2="668.35" y2="1282.82" gradientTransform="matrix(1, 0, 0, -1, 287, 1614)" xlink:href="#a"/><linearGradient id="ah" x1="-101.82" y1="746.68" x2="656.12" y2="1299.57" gradientTransform="matrix(1, 0, 0, -1, 287, 1614)" xlink:href="#a"/><linearGradient id="ai" x1="-128.86" y1="783.74" x2="629.08" y2="1336.64" gradientTransform="matrix(1, 0, 0, -1, 287, 1614)" xlink:href="#a"/><linearGradient id="aj" x1="-141.35" y1="800.87" x2="616.59" y2="1353.77" gradientTransform="matrix(1, 0, 0, -1, 287, 1614)" xlink:href="#a"/><linearGradient id="ak" x1="-94.39" y1="736.49" x2="663.55" y2="1289.39" gradientTransform="matrix(1, 0, 0, -1, 287, 1614)" xlink:href="#a"/><linearGradient id="al" x1="-102.51" y1="747.63" x2="655.43" y2="1300.53" gradientTransform="matrix(1, 0, 0, -1, 287, 1614)" xlink:href="#a"/><linearGradient id="am" x1="-50.88" y1="676.84" x2="707.06" y2="1229.74" gradientTransform="matrix(1, 0, 0, -1, 287, 1614)" xlink:href="#a"/><linearGradient id="an" x1="-210.5" y1="809.6" x2="702.5" y2="1352.4" gradientTransform="matrix(1, 0, 0, -1, 287, 1614)" xlink:href="#a"/><linearGradient id="ao" x1="-343.98" y1="-1208.6" x2="446.22" y2="-536.94" gradientTransform="matrix(1, 0, 0, -1, 281.4, 1608.4)" xlink:href="#a"/><linearGradient id="ap" x1="-337.79" y1="-1215.87" x2="452.41" y2="-544.21" gradientTransform="matrix(1, 0, 0, -1, 281.4, 1608.4)" xlink:href="#a"/><linearGradient id="aq" x1="-194.15" y1="-1384.87" x2="596.05" y2="-713.2" gradientTransform="matrix(1, 0, 0, -1, 281.4, 1608.4)" xlink:href="#a"/><linearGradient id="ar" x1="-223.19" y1="-1350.71" x2="567.01" y2="-679.05" gradientTransform="matrix(1, 0, 0, -1, 281.4, 1608.4)" xlink:href="#a"/><linearGradient id="as" x1="-79.54" y1="-1519.7" x2="710.66" y2="-848.04" gradientTransform="matrix(1, 0, 0, -1, 281.4, 1608.4)" xlink:href="#a"/><linearGradient id="at" x1="-72" y1="-1528.58" x2="718.2" y2="-856.91" gradientTransform="matrix(1, 0, 0, -1, 281.4, 1608.4)" xlink:href="#a"/><linearGradient id="au" x1="-39.22" y1="-1567.14" x2="750.98" y2="-895.46" gradientTransform="matrix(1, 0, 0, -1, 281.4, 1608.4)" xlink:href="#a"/><linearGradient id="av" x1="-234.46" y1="-1338.43" x2="555.74" y2="-666.77" gradientTransform="matrix(1, 0, 0, -1, 287, 1614)" xlink:href="#a"/><linearGradient id="aw" x1="-240.08" y1="-1331.82" x2="550.12" y2="-660.16" gradientTransform="matrix(1, 0, 0, -1, 287, 1614)" xlink:href="#a"/><linearGradient id="ax" x1="-231.02" y1="-1342.5" x2="559.18" y2="-670.82" gradientTransform="matrix(1, 0, 0, -1, 287, 1614)" xlink:href="#a"/><linearGradient id="ay" x1="-209.92" y1="-1367.31" x2="580.28" y2="-695.65" gradientTransform="matrix(1, 0, 0, -1, 287, 1614)" xlink:href="#a"/><linearGradient id="az" x1="-184.52" y1="-1397.19" x2="605.68" y2="-725.52" gradientTransform="matrix(1, 0, 0, -1, 287, 1614)" xlink:href="#a"/><linearGradient id="ba" x1="-179.56" y1="-1403.03" x2="610.64" y2="-731.36" gradientTransform="matrix(1, 0, 0, -1, 287, 1614)" xlink:href="#a"/><linearGradient id="bb" x1="-163.03" y1="-1422.47" x2="627.17" y2="-750.8" gradientTransform="matrix(1, 0, 0, -1, 287, 1614)" xlink:href="#a"/><linearGradient id="bc" x1="-192.85" y1="-1387.41" x2="597.35" y2="-715.73" gradientTransform="matrix(1, 0, 0, -1, 287, 1614)" xlink:href="#a"/><linearGradient id="bd" x1="-187.25" y1="-1393.99" x2="602.95" y2="-722.32" gradientTransform="matrix(1, 0, 0, -1, 287, 1614)" xlink:href="#a"/><linearGradient id="be" x1="-196.28" y1="-1383.36" x2="593.92" y2="-711.68" gradientTransform="matrix(1, 0, 0, -1, 287, 1614)" xlink:href="#a"/><linearGradient id="bf" x1="-217.37" y1="-1358.55" x2="572.83" y2="-686.88" gradientTransform="matrix(1, 0, 0, -1, 287, 1614)" xlink:href="#a"/><linearGradient id="bg" x1="-242.8" y1="-1328.62" x2="547.4" y2="-656.96" gradientTransform="matrix(1, 0, 0, -1, 287, 1614)" xlink:href="#a"/><linearGradient id="bh" x1="-247.74" y1="-1322.82" x2="542.46" y2="-651.15" gradientTransform="matrix(1, 0, 0, -1, 287, 1614)" xlink:href="#a"/><linearGradient id="bi" x1="-264.23" y1="-1303.42" x2="525.97" y2="-631.75" gradientTransform="matrix(1, 0, 0, -1, 287, 1614)" xlink:href="#a"/><linearGradient id="bj" x1="-210.5" y1="-1322.4" x2="702.5" y2="-779.6" gradientTransform="matrix(1, 0, 0, -1, 287, 1614)" xlink:href="#a"/></defs><path class="a" d="M841.7,1616.8H1056v-7.6H841.7l-61.4-67.4,62.2-137h174.4v-7.7H647.7L456.1,1292.2H456l-1.8-1-.8,1.6-.9-1.6-1.8,1h-.1L259.1,1397.1H49.3v7.7H257.4l46.8,128.3-46.3,76.1H10v7.6H257.9l46.6,76.6-47.1,129.4H58.8v7.6H259.1L450.6,1934h.1l1.8,1,.9-1.6.8,1.6,1.8-1h.1l191.6-103.6h356v-7.6H842.5l-62.6-137.7Zm-319.6-3.4,26.9-44.3,16.1,44.4-16,44.2Zm47.1,11.2,8.1,22.2-20.2,11Zm4.1-11.1,11.1-30.4,54.4,29.9-54.7,30.1Zm-4.1-11.2-12.5-34.2,20.9,11.4Zm-51.6,3.7L464,1517.2l80.7,44.3Zm-64.2-91.6,59.8,99-59.8,98.4-59.8-98.4Zm64.2,106.3,26.8,44.1L464.1,1709Zm69.3-44.8,12.3-33.6,36.8,60.5Zm-.3,74.5,49.4-27.2-37,61ZM442.8,1517.2,389.1,1606l-27-44.5Zm0,191.8-80.4-44.2,26.7-44.1Zm151.3-175.1-13.9,38.3-24.9-13.6,27-44.3Zm-51.4,17.7-81.4-44.5,54.3-29.9Zm-97.2-44.5-81.4,44.5,27.1-74.4Zm0,212.1-54.4,30.2-27.3-75.1Zm15.8,0,81.7-44.9-27.4,75.1Zm93.7-51.5,24.9-13.7,14,38.5L582,1712.2Zm42.5-143L586.7,1507l43.1-70.9Zm-239.7,44.4,26.8,44.3-26.9,44.3-16.1-44.2Zm239.4,132.6,32.6,89.5-43.4-71.6Zm58.1-92.5,54.6-59.9,27.2,59.9Zm-8-2.5-44.7-73.6L647.1,1411l59.4,130.8ZM577.8,1507l-27.1,44.5-28.4-77.9,26.4-14.5Zm-124.4-4.2L393.8,1470l59.6-163.9L513,1470Zm0,220.7,59.6,33.1-59.6,163.5-59.6-163.5Zm68.9,29.7,28.4-77.8,26.8,44.2-29.1,47.9Zm80-59.8,45-74.1,59.5,65.8-59.7,131.4Zm52.9-76.6h82.6l-27.6,60.7ZM358.1,1459.1l26.3,14.5L356,1551.5,329,1507Zm-8.1,109-12.4,34.2-8.4-22.8Zm-12.4,56.5,12,33.2-20.1-11Zm18.4,50.8,28.4,77.8-26,14.3-29.1-47.9Zm356.1-139.8-52-114.2,78.1,85.6Zm-129.8-35.9-27-44.3,80.7-44.3Zm-62.6-33.4-49.5-136.4,74.5,122.7Zm-132.7,0-24.9-13.7,74.6-122.7Zm0,294,49.5,135.8-74.1-122Zm132.7,0,24.7,13.8-74.1,122Zm62.3-33.4,54,89.4-81-45Zm130.4-35.7,25.8,28.6-77.9,86.1Zm-378.9-77.7-10.8,29.6L268,1613l54.4-29.9Zm17.9-158.1-26.9,44.3-53.7-88.6Zm.3,315.9-80.9,45,54-89.4Zm363.8-228.1,27.9-30.6,27.8,30.6-27.8,61.3Zm27.9-41.9-88.1-96.5h176Zm-192-52.4L464,1305.2,638.8,1401Zm-196,0L268,1401l174.8-95.8Zm-4,109.7-24.8,13.6-14-38.3,11.9-19.6Zm.3,109.1-26.9,44.5-12-19.7,14.1-38.5Zm4,110.1,87.1,143.4L268,1826.5Zm195.3,0,87.8,48.7L464,1921.2Zm192.4-52.4,88,97.4H655.2Zm-27.6-41.7,27.6-60.8,27.5,60.8-27.5,30.4Zm33.2-66.9h82.4l-54.9,60.7Zm.6-7.6,27.2-59.9,54.5,59.9ZM748.5,1507l78.1-85.6-52,114.2ZM320,1507l-10.8,17.7L276.9,1436Zm-.2,68.9-49,26.9,36.7-60.5Zm.3,74.5-12.4,33.8-36.9-61Zm.2,69.2-43.4,71.6,32.6-89.5Zm428.2.2,25.8-28.6,52.2,114.7Z"/><circle class="b" cx="453.3" cy="1295" r="28.3"/><circle class="c" cx="453.3" cy="1508.9" r="28.3"/><circle class="d" cx="453.3" cy="1931.2" r="28.3"/><circle class="e" cx="453.3" cy="1719.2" r="28.3"/><circle class="f" cx="260.1" cy="1400.9" r="28.3"/><circle class="g" cx="260.1" cy="1613" r="28.3"/><circle class="h" cx="260.1" cy="1825.1" r="28.3"/><circle class="i" cx="646.7" cy="1400.9" r="28.3"/><circle class="j" cx="646.7" cy="1613" r="28.3"/><circle class="k" cx="646.7" cy="1825.1" r="28.3"/><circle class="l" cx="840" cy="1400.9" r="28.3"/><circle class="m" cx="840" cy="1613" r="28.3"/><circle class="n" cx="840" cy="1825.1" r="28.3"/><circle class="o" cx="533" cy="1599" r="523"/><path class="p" d="M233.6,274.9a8.3,8.3,0,0,1,8.3-8.3H881.4a8.4,8.4,0,0,1,8.4,8.3V736.3a8.5,8.5,0,0,1-8.4,8.4H834.3v4.5h47.1a12.9,12.9,0,0,0,12.9-12.9h0V274.9A12.9,12.9,0,0,0,881.4,262H241.9A12.9,12.9,0,0,0,229,274.9v47.9h4.6Z"/><path class="q" d="M881.4,750.9H832.6V743h48.8a6.7,6.7,0,0,0,6.7-6.7h0V274.9a6.7,6.7,0,0,0-6.7-6.6H241.9a6.8,6.8,0,0,0-6.6,6.6v49.6h-7.9V274.9a14.5,14.5,0,0,1,14.5-14.5H881.4A14.5,14.5,0,0,1,896,274.8h0V736.3a14.6,14.6,0,0,1-14.6,14.6ZM836,747.5h45.4a11.3,11.3,0,0,0,11.3-11.2V274.9a11.3,11.3,0,0,0-11.3-11.2H241.9a11.2,11.2,0,0,0-11.2,11.2h0v46.3h1.2V274.9a10,10,0,0,1,10-10H881.4a10.2,10.2,0,0,1,10.1,10V736.3a10.1,10.1,0,0,1-10.1,10H836Z"/><path class="r" d="M824.3,806.4H184.8a12.9,12.9,0,0,1-12.9-12.9h0V332.1a12.9,12.9,0,0,1,12.9-12.9H824.3a12.9,12.9,0,0,1,12.9,12.9h0V793.5a12.9,12.9,0,0,1-12.9,12.9ZM184.8,323.7a8.5,8.5,0,0,0-8.4,8.4V793.5a8.4,8.4,0,0,0,8.4,8.3H824.3a8.3,8.3,0,0,0,8.3-8.3V332.1a8.4,8.4,0,0,0-8.3-8.4Z"/><path class="s" d="M824.3,808H184.8a14.5,14.5,0,0,1-14.6-14.4h0V332.1a14.6,14.6,0,0,1,14.6-14.6H824.3a14.6,14.6,0,0,1,14.5,14.6V793.5A14.5,14.5,0,0,1,824.3,808ZM184.8,320.9a11.3,11.3,0,0,0-11.3,11.2V793.5a11.3,11.3,0,0,0,11.3,11.2H824.3a11.2,11.2,0,0,0,11.2-11.2h0V332.1a11.2,11.2,0,0,0-11.2-11.2H184.8ZM824.3,803.5H184.8a10.2,10.2,0,0,1-10.1-10V332.1a10.1,10.1,0,0,1,10.1-10H824.3a10,10,0,0,1,10,10V793.5A10,10,0,0,1,824.3,803.5ZM184.8,325.4a6.7,6.7,0,0,0-6.7,6.7h0V793.5a6.7,6.7,0,0,0,6.7,6.6H824.3a6.8,6.8,0,0,0,6.6-6.6V332.1a6.7,6.7,0,0,0-6.6-6.7Z"/><path class="r" d="M824.3,806.7H184.8a13.2,13.2,0,0,1-13.2-13.2h0V332.1a13.2,13.2,0,0,1,13.2-13.2H824.3a13.2,13.2,0,0,1,13.2,13.2h0V793.5a13.2,13.2,0,0,1-13.2,13.2ZM184.8,324.1a8,8,0,0,0-8.1,7.9h0V793.5a8,8,0,0,0,8,8H824.3a8,8,0,0,0,8-8V332.1a8,8,0,0,0-8-8Z"/><path class="r" d="M824.3,808.4H184.8a14.9,14.9,0,0,1-14.9-14.9h0V332.1a14.9,14.9,0,0,1,14.9-14.9H824.3a14.9,14.9,0,0,1,14.9,14.9h0V793.5a14.9,14.9,0,0,1-14.9,14.9ZM184.8,320.6A11.5,11.5,0,0,0,173.2,332h0V793.5A11.7,11.7,0,0,0,184.8,805H824.3a11.7,11.7,0,0,0,11.5-11.5V332.1a11.5,11.5,0,0,0-11.5-11.5ZM824.3,803.2H184.8a9.7,9.7,0,0,1-9.7-9.7h0V332.1a9.7,9.7,0,0,1,9.7-9.7H824.3a9.8,9.8,0,0,1,9.7,9.7V793.5A9.9,9.9,0,0,1,824.3,803.2ZM184.8,325.7a6.4,6.4,0,0,0-6.4,6.4V793.5a6.4,6.4,0,0,0,6.4,6.3H824.3a6.3,6.3,0,0,0,6.3-6.3V332.1a6.4,6.4,0,0,0-6.3-6.4Z"/><path class="t" d="M262.1,664.5a2.2,2.2,0,0,1-2.1-1.1,2.4,2.4,0,0,1,1-3.1L763.5,402.9a2.2,2.2,0,0,1,3,.9h.1a2.2,2.2,0,0,1-1,3L263.1,664.2A1.7,1.7,0,0,1,262.1,664.5Z"/><path class="u" d="M262.1,666.7a4.3,4.3,0,0,1-4-2.4,4.4,4.4,0,0,1,1.9-6h0L762.5,401a4.1,4.1,0,0,1,3.4-.3,4.2,4.2,0,0,1,2.9,5.6,3.8,3.8,0,0,1-2.2,2.6L264.1,666.2A2.9,2.9,0,0,1,262.1,666.7ZM764.6,404.9,262,662.3h.1Z"/><path class="v" d="M262.1,688.9a2.1,2.1,0,0,1-2.2-1.6,2.3,2.3,0,0,1,1.5-2.9h0L763.8,524.8a2.3,2.3,0,1,1,1.4,4.4L262.8,688.8Z"/><path class="w" d="M262.1,691.1a4.5,4.5,0,0,1-4-6.6,5.1,5.1,0,0,1,2.6-2.2L763.2,522.7a4.5,4.5,0,0,1,5.6,2.9,4.3,4.3,0,0,1-.3,3.5,5.1,5.1,0,0,1-2.6,2.2L263.4,690.9ZM764.6,527,262.1,686.6h0Z"/><polygon class="x" points="231.3 747 231.3 402.6 226.8 402.6 226.8 747 226.8 751.5 231.3 751.5 766.8 751.5 766.8 747 231.3 747"/><path class="y" d="M769,753.7H224.5V400.5h9V744.7H769Zm-540-4.5h0Z"/><circle class="z" cx="356.7" cy="663.3" r="14"/><circle class="aa" cx="445.4" cy="595.9" r="14"/><circle class="ab" cx="362.5" cy="576.6" r="14"/><circle class="ac" cx="485.9" cy="504.4" r="14"/><circle class="ad" cx="556.5" cy="535" r="14"/><circle class="ae" cx="619.8" cy="576" r="14"/><circle class="af" cx="513.3" cy="628" r="14"/><circle class="ag" cx="632" cy="484.6" r="14"/><circle class="ah" cx="688.3" cy="417.2" r="14"/><circle class="ai" cx="698" cy="508.8" r="14"/><circle class="aj" cx="746.3" cy="456.5" r="14"/><circle class="ak" cx="749.3" cy="562.8" r="14"/><circle class="al" cx="533" cy="533" r="523"/><path class="am" d="M239.6,2538.9h1a4.1,4.1,0,0,0,3.8-3.1c4.7-19.8,16.4-51.9,27.4-54,3.2-.6,6.7,1.9,10.3,7.2s9.5,10.1,15.1,10.3h.6c10,0,18.4-10.3,27.2-21.2,7.1-8.7,14.9-18.4,21.5-18.4h0c2.9.1,5.7,2.2,8.7,6.4,4.5,6.3,9.4,9.4,15,9.4,10.5-.1,19.1-12.6,27.3-24.9,6.3-9.1,13.5-19.5,18.6-19.5,1.8,0,3.9,1.6,6.1,4.7,4.2,6.1,9.6,9.2,16.1,9.2h0c22,0,48.1-38,49.2-39.6a4,4,0,0,0-1.1-5.6,3.8,3.8,0,0,0-2.9-.7,3.9,3.9,0,0,0-2.6,1.7,178.2,178.2,0,0,1-15,18.5c-11,11.6-20.5,17.7-27.6,17.7-3.8,0-6.9-1.8-9.5-5.7s-8.1-8.2-12.7-8.2c-9.4,0-17.1,11.2-25.1,23.1-6.5,9.4-14.6,21.3-20.9,21.4h0c-2.7,0-5.4-2.1-8.4-6.2-4.6-6.4-9.4-9.6-15.3-9.7-10.2,0-19.1,10.9-27.6,21.3-7,8.8-15.2,18.5-21.3,18.3-2.8-.1-5.7-2.4-8.7-6.7-5.7-8.3-11.8-11.9-18.5-10.7-8.7,1.6-17.2,12.5-24.9,32.3a236.5,236.5,0,0,0-8.8,27.8A4.1,4.1,0,0,0,239.6,2538.9Z"/><path class="an" d="M223.3,2568H500.5a16.4,16.4,0,0,0,16.4-16.4V2385.9a16.4,16.4,0,0,0-16.4-16.4H223.3a16.4,16.4,0,0,0-16.5,16.4h0v165.7A16.4,16.4,0,0,0,223.3,2568Zm-8.4-16.4V2385.9a8.5,8.5,0,0,1,8.4-8.5H500.5a8.5,8.5,0,0,1,8.3,8.5v165.7a8.4,8.4,0,0,1-8.3,8.4H223.3A8.6,8.6,0,0,1,214.9,2551.6Z"/><path class="ao" d="M565.7,2568H842.9a16.4,16.4,0,0,0,16.5-16.4V2385.9a16.4,16.4,0,0,0-16.5-16.4H565.7a16.4,16.4,0,0,0-16.4,16.4h0v165.7A16.4,16.4,0,0,0,565.7,2568Zm-8.3-16.4V2385.9a8.5,8.5,0,0,1,8.3-8.5H842.9a8.5,8.5,0,0,1,8.4,8.5v165.7a8.6,8.6,0,0,1-8.4,8.4H565.7A8.4,8.4,0,0,1,557.4,2551.6Z"/><path class="ap" d="M223.3,2800.3H500.5a16.5,16.5,0,0,0,16.4-16.4V2618.2a16.5,16.5,0,0,0-16.4-16.5H223.3a16.5,16.5,0,0,0-16.5,16.5v165.7A16.5,16.5,0,0,0,223.3,2800.3Zm-8.4-16.4V2618.2a8.5,8.5,0,0,1,8.4-8.5H500.5a8.5,8.5,0,0,1,8.3,8.5v165.7a8.3,8.3,0,0,1-8.3,8.3H223.3a8.4,8.4,0,0,1-8.4-8.3Z"/><path class="aq" d="M565.7,2800.3H842.9a16.5,16.5,0,0,0,16.5-16.4V2618.2a16.5,16.5,0,0,0-16.5-16.5H565.7a16.5,16.5,0,0,0-16.4,16.5v165.7A16.5,16.5,0,0,0,565.7,2800.3Zm-8.3-16.4V2618.2a8.5,8.5,0,0,1,8.3-8.5H842.9a8.5,8.5,0,0,1,8.4,8.5v165.7a8.4,8.4,0,0,1-8.4,8.3H565.7A8.3,8.3,0,0,1,557.4,2783.9Z"/><path class="ar" d="M581.1,2771.2a3.4,3.4,0,0,0,3-1.3l30.3-32.6,20.4,11.5,29.1-41.4,22.8,17.2,37.8-44.2,26.7,25,23.4-13.3,19,15.1,36.9-38.9a4.1,4.1,0,0,0,1.1-2.8,3.6,3.6,0,0,0-1.2-2.8,5,5,0,0,0-2.9-1.2,4.5,4.5,0,0,0-2.8,1.3l-31.8,33.5-17.5-13.9-23.1,13.1-28.4-26.6-38.4,44.8L662.1,2696l-29.7,42.2-19.5-10.9-34.6,37.3a3.8,3.8,0,0,0,.1,5.5h.1A3.6,3.6,0,0,0,581.1,2771.2Z"/><path class="as" d="M909.9,2833.2H146.8a15.8,15.8,0,0,0-15.7,15.8v26a15.7,15.7,0,0,0,15.7,15.7h57.9v188.2h7.9V2890.7h21.7v209.4h8V2890.7H819.4v209.4h8V2890.7h21.7v190.5h8V2890.7h52.8a15.7,15.7,0,0,0,15.7-15.7v-26A15.8,15.8,0,0,0,909.9,2833.2Zm7.6,15.8v26a7.7,7.7,0,0,1-7.6,7.7H146.8a7.7,7.7,0,0,1-7.8-7.7v-26a7.7,7.7,0,0,1,7.8-7.7H909.9a7.7,7.7,0,0,1,7.6,7.7Z"/><rect class="at" x="591.4" y="2458.2" width="8.2" height="65.48"/><rect class="au" x="627.3" y="2427.3" width="8.2" height="43.54"/><rect class="av" x="663.2" y="2412.1" width="8.2" height="49.67"/><rect class="aw" x="699.2" y="2427.3" width="8.2" height="43.54"/><rect class="ax" x="735.1" y="2447.3" width="8.2" height="45.44"/><rect class="ay" x="771" y="2427.3" width="8.2" height="44.49"/><rect class="az" x="807" y="2412.1" width="8.2" height="80.68"/><rect class="ba" x="464.8" y="2650.2" width="8.2" height="65.48"/><rect class="bb" x="428.8" y="2703.1" width="8.2" height="43.54"/><rect class="bc" x="392.9" y="2712.2" width="8.2" height="49.66"/><rect class="bd" x="356.9" y="2703.1" width="8.2" height="43.54"/><rect class="be" x="320.9" y="2681.2" width="8.2" height="45.44"/><rect class="bf" x="285" y="2702.2" width="8.2" height="44.49"/><rect class="bg" x="249.1" y="2681.2" width="8.2" height="80.68"/><circle class="bh" cx="533" cy="2665" r="523"/></svg>